<?xml version="1.0" encoding="utf-8"?>
<!-- Generator: Adobe Illustrator 25.2.1, SVG Export Plug-In . SVG Version: 6.00 Build 0)  -->
<svg version="1.1"
	 id="svg2" inkscape:version="1.2.1 (9c6d41e410, 2022-07-14)" sodipodi:docname="python-logo-only.svg" sodipodi:version="0.32" xmlns:cc="http://creativecommons.org/ns#" xmlns:dc="http://purl.org/dc/elements/1.1/" xmlns:inkscape="http://www.inkscape.org/namespaces/inkscape" xmlns:rdf="http://www.w3.org/1999/02/22-rdf-syntax-ns#" xmlns:sodipodi="http://sodipodi.sourceforge.net/DTD/sodipodi-0.dtd" xmlns:svg="http://www.w3.org/2000/svg"
	 xmlns="http://www.w3.org/2000/svg" xmlns:xlink="http://www.w3.org/1999/xlink" x="0px" y="0px" viewBox="0 0 120.5 121.7"
	 style="enable-background:new 0 0 120.5 121.7;" xml:space="preserve">
<style type="text/css">
	.st0{fill:#471488;}
</style>
<sodipodi:namedview  bordercolor="#666666" borderopacity="1.0" gridtolerance="10.0" guidetolerance="10.0" height="40mm" id="base" inkscape:current-layer="svg2" inkscape:cx="91.558698" inkscape:cy="47.9926" inkscape:deskcolor="#d1d1d1" inkscape:document-units="pt" inkscape:pagecheckerboard="0" inkscape:pageopacity="0.0" inkscape:pageshadow="2" inkscape:showpageshadow="2" inkscape:window-height="2080" inkscape:window-maximized="0" inkscape:window-width="1976" inkscape:window-x="1092" inkscape:window-y="72" inkscape:zoom="2.1461642" objecttolerance="10.0" pagecolor="#ffffff" showgrid="false" units="mm" width="210mm">
	</sodipodi:namedview>
<path id="path1948" class="st0" d="M59.6,4.7c-4.6,0-9,0.4-12.8,1.1c-11.3,2-13.4,6.2-13.4,13.9v10.2h26.8v3.4H33.3h-10
	c-7.8,0-14.6,4.7-16.8,13.6C4.1,57.2,4,63.5,6.5,74.2c1.9,7.9,6.5,13.6,14.2,13.6H30V75.5c0-8.8,7.7-16.7,16.8-16.7h26.8
	c7.5,0,13.4-6.1,13.4-13.6V19.7C87,12.4,80.9,7,73.6,5.8C68.9,5,64.1,4.7,59.6,4.7z M45.1,12.9c2.8,0,5,2.3,5,5.1s-2.3,5.1-5,5.1
	c-2.8,0-5-2.3-5-5.1C40,15.2,42.3,12.9,45.1,12.9z"/>
<path id="path1950" class="st0" d="M90.3,33.4v11.9c0,9.2-7.8,17-16.8,17H46.8c-7.3,0-13.4,6.3-13.4,13.6v25.5
	c0,7.3,6.3,11.5,13.4,13.6c8.5,2.5,16.6,2.9,26.8,0c6.8-2,13.4-5.9,13.4-13.6V91.2H60.2v-3.4H87h13.4c7.8,0,10.7-5.4,13.4-13.6
	c2.8-8.4,2.7-16.5,0-27.2c-1.9-7.8-5.6-13.6-13.4-13.6L90.3,33.4z M75.2,98c2.8,0,5,2.3,5,5.1c0,2.8-2.3,5.1-5,5.1
	c-2.8,0-5-2.3-5-5.1S72.5,98,75.2,98z"/>
</svg>
